<svg version="1.1" xmlns="http://www.w3.org/2000/svg" xmlns:xlink="http://www.w3.org/1999/xlink" viewBox="0 0 1000 1000"><g><path d="M500,990.3C229.4,990.3,10,770.8,10,500C10,229.2,229.4,9.7,500,9.7c270.6,0,490,219.5,490,490.3C990,770.8,770.6,990.3,500,990.3L500,990.3z M500,75C265.5,75,75.3,265.3,75.3,500c0,234.7,190.1,425,424.7,425c234.5,0,424.7-190.3,424.7-425C924.7,265.3,734.5,75,500,75L500,75z M500,794.2c-36.1,0-65.3-29.3-65.3-65.4c0-36.1,29.2-65.4,65.3-65.4c36.1,0,65.3,29.3,65.3,65.4C565.3,764.9,536.1,794.2,500,794.2L500,794.2z M500,598.1c-18,0-32.7-29.3-32.7-65.4l-32.7-294.2c0-36.1,29.2-65.4,65.3-65.4c36.1,0,65.3,29.3,65.3,65.4l-32.7,294.2C532.7,568.8,518,598.1,500,598.1L500,598.1L500,598.1z" fill="#ccc"/></g></svg>
